<svg width="35" height="35" viewBox="0 0 35 35" fill="none" xmlns="http://www.w3.org/2000/svg">
<path d="M14.9377 23.7912L8.75 17.6021L10.8121 15.54L14.9377 19.6642L23.186 11.4144L25.2496 13.4779L14.9377 23.7912Z" fill="#0FA958"/>
<path fill-rule="evenodd" clip-rule="evenodd" d="M1.4585 17.5C1.4585 8.64064 8.64079 1.45834 17.5002 1.45834C26.3595 1.45834 33.5418 8.64064 33.5418 17.5C33.5418 26.3594 26.3595 33.5417 17.5002 33.5417C8.64079 33.5417 1.4585 26.3594 1.4585 17.5ZM17.5002 30.625C15.7766 30.625 14.0698 30.2855 12.4774 29.6259C10.885 28.9663 9.43815 27.9996 8.21939 26.7808C7.00062 25.562 6.03384 24.1151 5.37424 22.5227C4.71465 20.9303 4.37516 19.2236 4.37516 17.5C4.37516 15.7764 4.71465 14.0697 5.37424 12.4773C6.03384 10.8849 7.00062 9.438 8.21939 8.21923C9.43815 7.00046 10.885 6.03368 12.4774 5.37409C14.0698 4.7145 15.7766 4.37501 17.5002 4.37501C20.9811 4.37501 24.3195 5.75782 26.7809 8.21923C29.2424 10.6806 30.6252 14.019 30.6252 17.5C30.6252 20.981 29.2424 24.3194 26.7809 26.7808C24.3195 29.2422 20.9811 30.625 17.5002 30.625Z" fill="#0FA958"/>
</svg>
