<svg width="29" height="29" viewBox="0 0 29 29" fill="none" xmlns="http://www.w3.org/2000/svg">
<path d="M4.98428 24.707H24.0155C26.552 24.707 27.827 23.4574 27.827 20.9572V8.05529C27.827 5.55508 26.552 4.29254 24.0155 4.29254H4.98428C2.44782 4.29254 1.17285 5.55508 1.17285 8.05529V20.9572C1.17285 23.4574 2.4473 24.707 4.98428 24.707ZM3.12724 8.16508C3.12724 6.90254 3.80719 6.24745 5.02053 6.24745H23.9912C25.1926 6.24745 25.8726 6.90254 25.8726 8.16508V9.18422H3.12724V8.16508ZM5.02053 22.7541C3.80667 22.7541 3.12724 22.1105 3.12724 20.8484V11.9392H25.8726V20.8479C25.8726 22.1099 25.1926 22.7536 23.9912 22.7536L5.02053 22.7541ZM6.41615 19.1607H9.39021C10.1064 19.1607 10.5797 18.6874 10.5797 17.9956V15.7501C10.5797 15.0707 10.1064 14.585 9.39021 14.585H6.41615C5.69996 14.585 5.22664 15.0707 5.22664 15.7501V17.9956C5.22664 18.6874 5.69996 19.1607 6.41615 19.1607Z" fill="black"/>
</svg>
