<svg width="30" height="30" viewBox="0 0 30 30" fill="none" xmlns="http://www.w3.org/2000/svg">
<path d="M21.7999 10.11C21.7999 6.54627 20.6724 5.49877 19.2961 5.0069C16.4474 3.98815 10.3649 3.20502 6.90424 5.0069C5.95861 5.49877 3.86736 6.32065 3.67174 8.6194C3.31111 12.8475 3.40299 17.0944 3.70299 21.33C3.87986 23.8213 5.91611 25.1713 7.60174 25.4825C12.108 26.3138 17.1492 26.1775 22.0224 25.6094C24.1774 25.3581 25.4036 23.7269 25.6986 22.5031C26.4167 19.525 26.7767 15.1481 26.4274 13.755C25.5299 10.1769 23.6205 10.205 21.7999 10.11ZM21.7999 10.11L9.40799 10.205" stroke="black" stroke-linecap="round" stroke-linejoin="round"/>
<path d="M20.6911 17.3362L20.7223 18.1606C20.6911 19.0168 22.3704 19.0668 22.3704 18.1606V17.2418C24.5929 14.49 18.7173 13.9337 20.6911 17.3362Z" stroke="black" stroke-linecap="round" stroke-linejoin="round"/>
</svg>
