<svg width="64" height="64" viewBox="0 0 64 64" fill="none" xmlns="http://www.w3.org/2000/svg">
<path d="M16.1 48.5C15.6 48.4 15.2 48.3 14.7 48.1C14.2 47.9 13.8 47.8 13.4 47.6C12.5 47.2 11.7 46.7 10.9 46.1C9.3 45 8 43.5 7 41.7C6 40 5.4 38 5.3 36.1C5.2 35.1 5.3 34.2 5.4 33.2C5.5 32.7 5.6 32.3 5.7 31.8C5.8 31.3 6 30.9 6.1 30.4L6.2 31.8C6.2 32.3 6.3 32.7 6.4 33.2C6.5 34.1 6.7 35 6.9 35.8C7.3 37.5 7.9 39.1 8.8 40.6C9.7 42.1 10.7 43.5 12 44.8C12.6 45.4 13.3 46 14 46.6C14.3 46.9 14.7 47.2 15.1 47.5L16.1 48.5ZM15.8 52.1C15.5 52.3 15.1 52.4 14.7 52.5C14.3 52.6 14 52.7 13.6 52.7C12.9 52.8 12.1 52.9 11.3 52.8C9.8 52.7 8.2 52.3 6.9 51.6C5.5 50.9 4.3 49.8 3.5 48.5C3.1 47.9 2.7 47.2 2.4 46.5C2.3 46.2 2.2 45.8 2.1 45.4C2.1 45.1 2 44.8 2 44.4C2.3 44.7 2.5 45 2.7 45.2C3 45.5 3.2 45.8 3.4 46C3.9 46.5 4.3 47 4.8 47.4C5.8 48.3 6.8 49.1 8 49.7C9.1 50.3 10.4 50.8 11.6 51.2C12.2 51.4 12.9 51.5 13.6 51.7C13.9 51.8 14.3 51.8 14.6 51.9C15.1 52 15.4 52 15.8 52.1ZM38.4 3.49998C38.9 3.59998 39.3 3.79998 39.8 3.99998C40.3 4.19998 40.7 4.39998 41.1 4.59998C42 5.09998 42.8 5.59998 43.6 6.19998C45.2 7.39998 46.5 8.99998 47.4 10.8C48.3 12.6 48.8 14.6 48.8 16.5C48.8 17.5 48.7 18.4 48.5 19.4C48.4 19.9 48.3 20.3 48.1 20.8C47.9 21.3 47.8 21.7 47.6 22.1L47.5 20.7C47.5 20.2 47.5 19.8 47.4 19.3L47.1 16.6C46.8 14.9 46.2 13.2 45.4 11.6C44.6 9.99998 43.6 8.59998 42.4 7.29998C41.8 6.59998 41.1 5.99998 40.5 5.29998C40.2 4.99998 39.8 4.69998 39.4 4.39998L38.4 3.49998ZM47.1 3.09998C47.5 3.19998 47.8 3.29998 48.1 3.49998C48.4 3.59998 48.8 3.79998 49.1 3.99998C49.7 4.39998 50.3 4.79998 50.9 5.29998C52 6.29998 52.9 7.49998 53.4 8.89998C54 10.3 54.2 11.8 54 13.3C53.9 14 53.7 14.7 53.5 15.4C53.4 15.7 53.2 16.1 53.1 16.4C52.9 16.7 52.8 17 52.5 17.3V15.3C52.5 14.6 52.4 14 52.4 13.4C52.2 12.1 52 10.9 51.5 9.79998C51 8.59998 50.4 7.59998 49.7 6.49998C49.3 5.99998 48.9 5.39998 48.5 4.89998C48.3 4.59998 48.1 4.39998 47.8 4.09998C47.6 3.59998 47.3 3.29998 47.1 3.09998Z" fill="#42ADE2"/>
<path d="M10 18C8 18.9 7.29999 21.3 8.19999 23.3L20.8 49.6L27.8 46.3L15.2 19.9C14.3 17.9 12 17 10 18ZM43.1 38.9L50.5 35.4L36.1 5.39998C35.1 3.39998 32.7 2.49998 30.6 3.49998C28.6 4.49998 27.7 6.89998 28.7 8.99998L43.1 38.9Z" fill="#FFDD67"/>
<path d="M30.7 3.39998C30.5 3.49998 30.3 3.59998 30.1 3.79998C32 3.29998 34 4.19998 34.9 5.99998L49.3 36L50.6 35.4L36.2 5.39998C35.2 3.29998 32.8 2.39998 30.7 3.39998Z" fill="#EBA352"/>
<path d="M27.8 46.2L35.5001 42.5L20.8 11.9C19.8 9.80001 17.2001 8.80001 15.1001 9.80001C13.0001 10.8 12.1001 13.4 13.1001 15.5L27.8 46.2Z" fill="#FFDD67"/>
<path d="M15.1 9.90001C14.9 10 14.7 10.1 14.5 10.3C16.4 9.80001 18.6 10.7 19.5 12.6L28.6 31.7L30.8 33L20.8 12C19.8 9.80001 17.3 8.90001 15.1 9.90001Z" fill="#EBA352"/>
<path d="M34.3 40.1L42.0001 36.4L27.3 5.8C26.3 3.7 23.7001 2.7 21.6001 3.8C19.5001 4.8 18.6001 7.4 19.6001 9.5L34.3 40.1Z" fill="#FFDD67"/>
<path d="M21.6 3.69999C21.4 3.79999 21.2 3.99999 21 4.09999C22.9 3.59999 25.1 4.49999 26 6.39999L36.3 28L38.5 29.3L27.3 5.79999C26.3 3.59999 23.7 2.69999 21.6 3.69999ZM10 18C9.80002 18.1 9.60002 18.2 9.40002 18.4C11.2 17.9 13.1 18.8 13.9 20.6L21.4 36.3L23.6 37.6L15.2 20C14.3 17.9 12 17 10 18Z" fill="#EBA352"/>
<path d="M60.8 15C58.1 12.9 53.7 15.2 51.5 22.4C50 27.4 49.8 28.9 46.6 30.4L44.8 26.7C44.8 26.7 16.4 40.4 17.5 42.6C17.5 42.6 20.9 53.2 26.7 58.1C35.3 65.5 55.4 57.6 56.3 38.5C56.8 27.4 63.7 17.3 60.8 15Z" fill="#FFDD67"/>
<path d="M60.8 15C60.3 14.6 59.7 14.4 59.1 14.3C59.2 14.4 59.4 14.4 59.5 14.5C62.5 16.8 59.4 22.1 57.7 26.9C56.3 30.7 55.1 34.6 55.3 38.4C56.1 55 39.4 62.9 29.4 59.9C39.2 64 57.4 56.2 56.6 38.9C56.4 35.1 57.5 31.4 59 27.4C60.6 22.6 63.7 17.3 60.8 15Z" fill="#EBA352"/>
<path d="M47.5 30C41.3 30.7 32.2 39.6 38.6 49.3C33.9 39.5 41.6 32.9 46.5 30.6C47 30.2 47.5 30 47.5 30Z" fill="#EBA352"/>
</svg>
